<svg id="Layer_1" data-name="Layer 1" xmlns="http://www.w3.org/2000/svg" xmlns:xlink="http://www.w3.org/1999/xlink" viewBox="0 0 376.7 171.13"><defs><style>.cls-1{fill:url(#linear-gradient);}.cls-2{fill:url(#linear-gradient-2);}.cls-3{fill:url(#linear-gradient-3);}.cls-4{fill:url(#linear-gradient-4);}.cls-5{fill:url(#linear-gradient-5);}.cls-10,.cls-6,.cls-7,.cls-9{opacity:0.27;}.cls-6{fill:url(#linear-gradient-6);}.cls-7{fill:url(#linear-gradient-7);}.cls-8{fill:url(#linear-gradient-8);}.cls-9{fill:url(#linear-gradient-9);}.cls-10{fill:url(#linear-gradient-10);}.cls-11{fill:url(#linear-gradient-11);}.cls-12{fill:url(#linear-gradient-12);}.cls-13{fill:url(#linear-gradient-13);}.cls-14{fill:url(#linear-gradient-14);}.cls-15{fill:url(#linear-gradient-15);}</style><linearGradient id="linear-gradient" x1="4.71" y1="85.57" x2="135.64" y2="85.57" gradientUnits="userSpaceOnUse"><stop offset="0" stop-color="#00a0ca"/><stop offset="1" stop-color="#60d5ff"/></linearGradient><linearGradient id="linear-gradient-2" x1="22.51" y1="40.2" x2="123.09" y2="40.2" xlink:href="#linear-gradient"/><linearGradient id="linear-gradient-3" x1="22.15" y1="97.25" x2="61.92" y2="97.25" xlink:href="#linear-gradient"/><linearGradient id="linear-gradient-4" x1="7.67" y1="91.07" x2="125.49" y2="91.07" xlink:href="#linear-gradient"/><linearGradient id="linear-gradient-5" x1="103.9" y1="53.6" x2="123.09" y2="53.6" xlink:href="#linear-gradient"/><linearGradient id="linear-gradient-6" x1="103.9" y1="57.42" x2="104.9" y2="57.42" xlink:href="#linear-gradient"/><linearGradient id="linear-gradient-7" x1="116.12" y1="48.02" x2="123.09" y2="48.02" xlink:href="#linear-gradient"/><linearGradient id="linear-gradient-8" x1="103.49" y1="117.07" x2="125.49" y2="117.07" xlink:href="#linear-gradient"/><linearGradient id="linear-gradient-9" x1="103.49" y1="112.66" x2="104.4" y2="112.66" xlink:href="#linear-gradient"/><linearGradient id="linear-gradient-10" x1="118.22" y1="123.2" x2="125.49" y2="123.2" xlink:href="#linear-gradient"/><linearGradient id="linear-gradient-11" x1="82.87" y1="129.44" x2="105.49" y2="129.44" gradientTransform="translate(82.65 -30.22) rotate(31.91)" xlink:href="#linear-gradient"/><linearGradient id="linear-gradient-12" x1="79.65" y1="40.3" x2="105.49" y2="40.3" gradientTransform="translate(78.34 -59.65) rotate(58.37)" xlink:href="#linear-gradient"/><linearGradient id="linear-gradient-13" x1="65.45" y1="148.37" x2="70.17" y2="148.37" gradientTransform="translate(196.63 48.28) rotate(76.72)" xlink:href="#linear-gradient"/><linearGradient id="linear-gradient-14" x1="65.45" y1="20.83" x2="70.17" y2="20.83" xlink:href="#linear-gradient"/><linearGradient id="linear-gradient-15" x1="270.43" y1="118.04" x2="270.43" y2="58.96" gradientUnits="userSpaceOnUse"><stop offset="0" stop-color="#162b42"/><stop offset="0.97" stop-color="#101925"/></linearGradient></defs><title>logo-footer</title><path class="cls-1" d="M105.58,105.37l30.06,17.35-65.83,38-.37-.21L4.71,123.15V48l.37-.21L69.81,10.4l65.83,38L106,65.55v.85l-1.11-.63-35-20.22-34.67,20v40l34.67,20,34.67-20M6.18,122.3,69.81,159l62.89-36.32-27.48-15.86L69.81,127.31,33.67,106.44V64.71L69.81,43.85,105.2,64.28l27.5-15.87L69.81,12.09,6.18,48.83Z"/><polyline class="cls-2" points="26.23 43.12 52.03 28.3 56.81 31.18 63.06 34.95 63.06 34.95 68.89 38.46 69.05 38.56 103.93 59.57 123.09 47.62 79.69 20.83 66.61 28.58 70.18 30.74 79.65 25.13 116.11 47.64 103.9 55.26 76.73 38.89 76.71 38.93 59.22 28.34 52.07 24.04 22.56 40.99 22.51 50.61 26.2 48.42"/><polygon class="cls-3" points="58.37 133.22 61.92 130.96 25.84 111.56 26.13 61.29 22.44 62.83 22.15 113.75 58.37 133.22"/><polygon class="cls-4" points="103.49 110.51 70.16 131.02 58.38 138.29 58.37 138.28 53.25 141.43 11.35 117.71 11.35 65.56 22.46 58.98 26.15 56.8 59.49 37.07 55.93 34.9 26.18 52.51 22.49 54.7 7.67 63.47 7.67 119.85 53.33 145.69 57.91 142.87 79.95 129.31 103.52 114.81 118.22 123.57 84.4 143.03 74.02 137.46 70.47 139.72 84.46 147.24 125.49 123.63 103.49 110.51"/><polygon class="cls-5" points="116.11 47.64 123.09 47.62 103.93 59.57 103.9 55.26 116.11 47.64"/><polygon class="cls-6" points="103.9 55.26 103.93 59.57 104.9 58.97 103.9 55.26"/><polygon class="cls-7" points="123.09 47.62 116.11 47.64 121.82 48.42 123.09 47.62"/><polygon class="cls-8" points="103.52 114.81 103.49 110.51 125.49 123.63 118.22 123.57 103.52 114.81"/><polyline class="cls-9" points="103.52 114.82 104.4 111.05 103.49 110.51"/><polyline class="cls-10" points="118.22 123.57 125.49 123.63 124.03 122.76"/><rect class="cls-11" x="81.56" y="128.32" width="25.25" height="2.24" transform="translate(-54.18 69.34) rotate(-31.91)"/><rect class="cls-12" x="91.45" y="25.82" width="2.24" height="28.97" transform="translate(9.71 97.99) rotate(-58.37)"/><circle class="cls-13" cx="67.81" cy="148.37" r="2.36" transform="translate(-92.17 180.28) rotate(-76.72)"/><circle class="cls-14" cx="67.81" cy="20.83" r="2.36"/><path class="cls-15" d="M183.53,118l-8.42-8.42V67.37L183.53,59h26.7l8.17,8.17-4.65,4.73-6.41-6.41H186.82l-4.41,4.41v37.27l4.41,4.41H208l6.49-6.49,4.65,4.73L210.79,118Z"/><path class="cls-15" d="M235.4,118,227,109.62V67.37L235.4,59h26.69l8.18,8.17-4.65,4.73-6.42-6.41H238.68l-4.41,4.41v37.27l4.41,4.41h21.17l6.49-6.49,4.65,4.73L262.65,118Z"/><path class="cls-15" d="M280.37,118V59h31.18l8.34,8.41V87.65l-8.34,8.42H287.66v22Zm7.29-28.46h20.6l4.33-4.41V69.86l-4.33-4.49-20.6.08Z"/><path class="cls-15" d="M340.89,118V65.69H323.33V59h42.41v6.73H348.18V118Z"/></svg>