<svg id="Layer_1" data-name="Layer 1" xmlns="http://www.w3.org/2000/svg" xmlns:xlink="http://www.w3.org/1999/xlink" viewBox="0 0 525.91 171.13"><defs><style>.cls-1{fill:url(#linear-gradient);}.cls-2{fill:url(#linear-gradient-2);}.cls-3{fill:url(#linear-gradient-3);}.cls-4{fill:url(#linear-gradient-4);}.cls-5{fill:url(#linear-gradient-5);}.cls-10,.cls-6,.cls-7,.cls-9{opacity:0.27;}.cls-6{fill:url(#linear-gradient-6);}.cls-7{fill:url(#linear-gradient-7);}.cls-8{fill:url(#linear-gradient-8);}.cls-9{fill:url(#linear-gradient-9);}.cls-10{fill:url(#linear-gradient-10);}.cls-11{fill:url(#linear-gradient-11);}.cls-12{fill:url(#linear-gradient-12);}.cls-13{fill:url(#linear-gradient-13);}.cls-14{fill:url(#linear-gradient-14);}.cls-15{fill:url(#linear-gradient-15);}.cls-16{fill:url(#linear-gradient-41);}</style><linearGradient id="linear-gradient" x1="4.71" y1="85.57" x2="135.64" y2="85.57" gradientUnits="userSpaceOnUse"><stop offset="0" stop-color="#00a0ca"/><stop offset="1" stop-color="#60d5ff"/></linearGradient><linearGradient id="linear-gradient-2" x1="22.51" y1="40.2" x2="123.09" y2="40.2" xlink:href="#linear-gradient"/><linearGradient id="linear-gradient-3" x1="22.15" y1="97.25" x2="61.92" y2="97.25" xlink:href="#linear-gradient"/><linearGradient id="linear-gradient-4" x1="7.67" y1="91.07" x2="125.49" y2="91.07" xlink:href="#linear-gradient"/><linearGradient id="linear-gradient-5" x1="103.9" y1="53.6" x2="123.09" y2="53.6" xlink:href="#linear-gradient"/><linearGradient id="linear-gradient-6" x1="103.9" y1="57.42" x2="104.9" y2="57.42" xlink:href="#linear-gradient"/><linearGradient id="linear-gradient-7" x1="116.12" y1="48.02" x2="123.09" y2="48.02" xlink:href="#linear-gradient"/><linearGradient id="linear-gradient-8" x1="103.49" y1="117.07" x2="125.49" y2="117.07" xlink:href="#linear-gradient"/><linearGradient id="linear-gradient-9" x1="103.49" y1="112.66" x2="104.4" y2="112.66" xlink:href="#linear-gradient"/><linearGradient id="linear-gradient-10" x1="118.22" y1="123.2" x2="125.49" y2="123.2" xlink:href="#linear-gradient"/><linearGradient id="linear-gradient-11" x1="82.87" y1="129.44" x2="105.49" y2="129.44" gradientTransform="translate(82.65 -30.22) rotate(31.91)" xlink:href="#linear-gradient"/><linearGradient id="linear-gradient-12" x1="79.65" y1="40.3" x2="105.49" y2="40.3" gradientTransform="translate(78.34 -59.65) rotate(58.37)" xlink:href="#linear-gradient"/><linearGradient id="linear-gradient-13" x1="65.45" y1="148.37" x2="70.17" y2="148.37" gradientTransform="translate(196.63 48.28) rotate(76.72)" xlink:href="#linear-gradient"/><linearGradient id="linear-gradient-14" x1="65.45" y1="20.83" x2="70.17" y2="20.83" xlink:href="#linear-gradient"/><linearGradient id="linear-gradient-15" x1="341.83" y1="137.73" x2="341.83" y2="114.54" gradientUnits="userSpaceOnUse"><stop offset="0" stop-color="#162b42"/><stop offset="0.97" stop-color="#101925"/></linearGradient><linearGradient id="linear-gradient-41" x1="246.72" y1="88.5" x2="246.72" y2="40.23" xlink:href="#linear-gradient-15"/></defs><title>logo-full</title><path class="cls-1" d="M105.58,105.37l30.06,17.35-65.83,38-.37-.21L4.71,123.15V48l.37-.21L69.81,10.4l65.83,38L106,65.55v.85l-1.11-.63-35-20.22-34.67,20v40l34.67,20,34.67-20M6.18,122.3,69.81,159l62.89-36.32-27.48-15.86L69.81,127.31,33.67,106.44V64.71L69.81,43.85,105.2,64.28l27.5-15.87L69.81,12.09,6.18,48.83Z"/><polyline class="cls-2" points="26.23 43.12 52.03 28.3 56.81 31.18 63.06 34.95 63.06 34.95 68.89 38.46 69.05 38.56 103.93 59.57 123.09 47.62 79.69 20.83 66.61 28.58 70.18 30.74 79.65 25.13 116.11 47.64 103.9 55.26 76.73 38.89 76.71 38.93 59.22 28.34 52.07 24.04 22.56 40.99 22.51 50.61 26.2 48.42"/><polygon class="cls-3" points="58.37 133.22 61.92 130.96 25.84 111.56 26.13 61.29 22.44 62.83 22.15 113.75 58.37 133.22"/><polygon class="cls-4" points="103.49 110.51 70.16 131.02 58.38 138.29 58.37 138.28 53.25 141.43 11.35 117.71 11.35 65.56 22.46 58.98 26.15 56.8 59.49 37.07 55.93 34.9 26.18 52.51 22.49 54.7 7.67 63.47 7.67 119.85 53.33 145.69 57.91 142.87 79.95 129.31 103.52 114.81 118.22 123.57 84.4 143.03 74.02 137.46 70.47 139.72 84.46 147.24 125.49 123.63 103.49 110.51"/><polygon class="cls-5" points="116.11 47.64 123.09 47.62 103.93 59.57 103.9 55.26 116.11 47.64"/><polygon class="cls-6" points="103.9 55.26 103.93 59.57 104.9 58.97 103.9 55.26"/><polygon class="cls-7" points="123.09 47.62 116.11 47.64 121.82 48.42 123.09 47.62"/><polygon class="cls-8" points="103.52 114.81 103.49 110.51 125.49 123.63 118.22 123.57 103.52 114.81"/><polyline class="cls-9" points="103.52 114.82 104.4 111.05 103.49 110.51"/><polyline class="cls-10" points="118.22 123.57 125.49 123.63 124.03 122.76"/><rect class="cls-11" x="81.56" y="128.32" width="25.25" height="2.24" transform="translate(-54.18 69.34) rotate(-31.91)"/><rect class="cls-12" x="91.45" y="25.82" width="2.24" height="28.97" transform="translate(9.71 97.99) rotate(-58.37)"/><circle class="cls-13" cx="67.81" cy="148.37" r="2.36" transform="translate(-92.17 180.28) rotate(-76.72)"/><circle class="cls-14" cx="67.81" cy="20.83" r="2.36"/><path class="cls-15" d="M166.37,133l-2.46-2.49V117l2.46-2.49h8l2.56,2.59-.88.93-2.21-2.24H167l-1.63,1.66V130.1l1.63,1.66h7l2.26-2.29.91.91L174.5,133Z"/><path class="cls-15" d="M181.73,133l-2.46-2.49v-3.13l2.46-2.49h7v-2.16l-1.64-1.65h-6.14v-1.21h6.72l2.46,2.49V133h-1.38l0-2.19L186.55,133Zm.55-1.16h3.92l2.51-2.51v-3.28h-6.43l-1.63,1.65v2.49Z"/><path class="cls-15" d="M194.4,137.73V119.91h1.38v2.24l2.11-2.24h5l2.46,2.49v8.15L202.88,133h-5l-2.11-2.24v6.93Zm3.89-5.85h4l1.65-1.65,0-7.51-1.63-1.65h-4l-2.51,2.61v5.62Z"/><path class="cls-15" d="M211.44,133,209,130.55V122.4l2.46-2.49h5.72l2.46,2.49V127h-9.26v3.19l1.63,1.65h7.41V133Zm-1.08-7.21h7.88v-3.11l-1.63-1.65H212l-1.63,1.65Z"/><path class="cls-15" d="M231.92,133l-2.46-2.49V117l2.46-2.49h8l2.56,2.59-.88.93-2.21-2.24H232.5l-1.63,1.66V130.1l1.63,1.66h7l2.25-2.29.91.91L240.05,133Z"/><path class="cls-15" d="M248,133l-2.46-2.49V122.4l2.46-2.49h5.9l2.46,2.49v8.15L253.93,133Zm.55-1.16h4.8l1.63-1.65v-7.51l-1.63-1.65h-4.8L247,122.72v7.51Z"/><path class="cls-15" d="M260.48,133V119.91h1.38v2.39l2.23-2.39h5l2.46,2.49V133h-1.38V122.75l-1.63-1.68h-4l-2.64,2.73V133Z"/><path class="cls-15" d="M278.17,133l-2.1-2.11v-9.86h-1.71v-1.16h1.73l.28-3.51h1.08v3.51h3.31v1.16h-3.31v9.41l1.35,1.35h2.46V133Z"/><path class="cls-15" d="M284,133V119.91h1.38v2.39l2.23-2.39h3.74v1.38h-3.56l-2.41,2.51V133Z"/><path class="cls-15" d="M295.74,133l-2.46-2.49V122.4l2.46-2.49h5.9l2.46,2.49v8.15L301.64,133Zm.55-1.16h4.8l1.63-1.65v-7.51l-1.63-1.65h-4.8l-1.63,1.65v7.51Z"/><path class="cls-15" d="M308.19,133v-18.5h1.38V133Z"/><path class="cls-15" d="M320.16,133v-18.5h9.13l2.46,2.49v6.17l-2.46,2.46h-7.7V133Zm1.43-8.66h7.1l1.63-1.66v-5.24l-1.63-1.66h-7.1Z"/><path class="cls-15" d="M334.69,133l-2.46-2.49v-3.13l2.46-2.49h7v-2.16L340,121.12h-6.14v-1.21h6.72l2.46,2.49V133h-1.38l0-2.19L339.51,133Zm.55-1.16h3.92l2.51-2.51v-3.28h-6.43l-1.63,1.65v2.49Z"/><path class="cls-15" d="M347.36,133V119.91h1.38v2.39l2.24-2.39h5l2.46,2.49V133h-1.38V122.75l-1.63-1.68h-4l-2.64,2.73V133Z"/><path class="cls-15" d="M364.86,133l-2.46-2.49V122.4l2.46-2.49h5.72L373,122.4V127h-9.26v3.19l1.63,1.65h7.4V133Zm-1.08-7.21h7.88v-3.11L370,121.07h-4.62l-1.63,1.65Z"/><path class="cls-15" d="M377.13,133v-18.5h1.38V133Z"/><path class="cls-15" d="M392.91,133V115.87h-5.85v-1.33h13.1v1.33h-5.84V133Z"/><path class="cls-15" d="M402.32,133l-2.46-2.49V122.4l2.46-2.49H408l2.46,2.49V127h-9.26v3.19l1.63,1.65h7.41V133Zm-1.08-7.21h7.88v-3.11l-1.63-1.65h-4.62l-1.63,1.65Z"/><path class="cls-15" d="M416.73,133l-2.46-2.49V122.4l2.46-2.49h5.74l2.09,2.11v1.71h-1.38v-1.28l-1.36-1.38h-4.54l-1.63,1.65v7.46l1.63,1.65h7.18V133Z"/><path class="cls-15" d="M428.32,133v-18.5h1.38v7.61l2.09-2.24h5l2.46,2.49V133h-1.38V122.75l-1.63-1.68h-4l-2.51,2.61V133Z"/><path class="cls-15" d="M443.56,133V119.91h1.38v2.39l2.23-2.39h5l2.46,2.49V133h-1.38V122.75l-1.63-1.68h-4l-2.63,2.73V133Z"/><path class="cls-15" d="M461.05,133l-2.46-2.49V122.4l2.46-2.49H467l2.45,2.49v8.15L467,133Zm.55-1.16h4.79l1.63-1.65v-7.51l-1.63-1.65H461.6L460,122.72v7.51Z"/><path class="cls-15" d="M473.49,133v-18.5h1.39V133Z"/><path class="cls-15" d="M481.45,133,479,130.55V122.4l2.46-2.49h5.9l2.46,2.49v8.15L487.35,133Zm.55-1.16h4.8l1.63-1.65v-7.51l-1.63-1.65H482l-1.63,1.65v7.51Z"/><path class="cls-15" d="M494.55,137.73v-1.2h6.8l1.63-1.66V130.8L500.9,133h-5l-2.46-2.49V122.4l2.46-2.49h5l2.08,2.24v-2.24h1.38v15.34l-2.46,2.48Zm5.95-5.85L503,129.3v-5.62l-2.48-2.61h-4l-1.63,1.65v7.51l1.63,1.65Z"/><path class="cls-15" d="M511,137.73l2.41-5.72h-.72L507,119.91h1.48l5,10.67H514l4.27-10.67h1.48l-7.33,17.82Z"/><path class="cls-16" d="M175.73,88.5l-6.88-6.88V47.11l6.88-6.88h21.81l6.68,6.68-3.8,3.86-5.24-5.23H178.41l-3.6,3.6V79.59l3.6,3.6H195.7l5.31-5.3,3.8,3.86L198,88.5Z"/><path class="cls-16" d="M218.1,88.5l-6.88-6.88V47.11l6.88-6.88h21.81l6.68,6.68-3.8,3.86-5.24-5.23H220.79l-3.61,3.6V79.59l3.61,3.6h17.28l5.31-5.3,3.8,3.86-6.81,6.75Z"/><path class="cls-16" d="M254.84,88.5V40.23h25.47l6.82,6.88V63.68l-6.82,6.87H260.8v18Zm6-23.25h16.83l3.54-3.6V49.14l-3.54-3.67-16.83.07Z"/><path class="cls-16" d="M304.28,88.5V45.73H289.94v-5.5h34.64v5.5H310.24V88.5Z"/></svg>