<svg id="Layer_1" data-name="Layer 1" xmlns="http://www.w3.org/2000/svg" xmlns:xlink="http://www.w3.org/1999/xlink" viewBox="0 0 373.84 118.96"><defs><style>.cls-1{fill:url(#linear-gradient);}.cls-2{fill:url(#linear-gradient-2);}.cls-3{fill:url(#linear-gradient-3);}.cls-4{fill:url(#linear-gradient-4);}.cls-5{fill:url(#linear-gradient-5);}.cls-10,.cls-6,.cls-7,.cls-9{opacity:0.27;}.cls-6{fill:url(#linear-gradient-6);}.cls-7{fill:url(#linear-gradient-7);}.cls-8{fill:url(#linear-gradient-8);}.cls-9{fill:url(#linear-gradient-9);}.cls-10{fill:url(#linear-gradient-10);}.cls-11{fill:url(#linear-gradient-11);}.cls-12{fill:url(#linear-gradient-12);}.cls-13{fill:url(#linear-gradient-13);}.cls-14{fill:url(#linear-gradient-14);}.cls-15{fill:url(#linear-gradient-15);}.cls-16{fill:url(#linear-gradient-41);}</style><linearGradient id="linear-gradient" x1="17.35" y1="59.48" x2="103.5" y2="59.48" gradientUnits="userSpaceOnUse"><stop offset="0" stop-color="#00a0ca"/><stop offset="1" stop-color="#60d5ff"/></linearGradient><linearGradient id="linear-gradient-2" x1="29.07" y1="29.63" x2="95.24" y2="29.63" xlink:href="#linear-gradient"/><linearGradient id="linear-gradient-3" x1="28.83" y1="67.17" x2="55" y2="67.17" xlink:href="#linear-gradient"/><linearGradient id="linear-gradient-4" x1="19.3" y1="63.1" x2="96.82" y2="63.1" xlink:href="#linear-gradient"/><linearGradient id="linear-gradient-5" x1="82.61" y1="38.45" x2="95.24" y2="38.45" xlink:href="#linear-gradient"/><linearGradient id="linear-gradient-6" x1="82.61" y1="40.96" x2="83.27" y2="40.96" xlink:href="#linear-gradient"/><linearGradient id="linear-gradient-7" x1="90.65" y1="34.78" x2="95.24" y2="34.78" xlink:href="#linear-gradient"/><linearGradient id="linear-gradient-8" x1="82.34" y1="80.21" x2="96.82" y2="80.21" xlink:href="#linear-gradient"/><linearGradient id="linear-gradient-9" x1="82.34" y1="77.31" x2="82.94" y2="77.31" xlink:href="#linear-gradient"/><linearGradient id="linear-gradient-10" x1="92.04" y1="84.24" x2="96.82" y2="84.24" xlink:href="#linear-gradient"/><linearGradient id="linear-gradient-11" x1="68.78" y1="88.34" x2="83.66" y2="88.34" gradientTransform="translate(58.21 -26.94) rotate(31.91)" xlink:href="#linear-gradient"/><linearGradient id="linear-gradient-12" x1="66.66" y1="29.7" x2="83.66" y2="29.7" gradientTransform="translate(61.03 -49.87) rotate(58.37)" xlink:href="#linear-gradient"/><linearGradient id="linear-gradient-13" x1="57.32" y1="100.8" x2="60.43" y2="100.8" gradientTransform="translate(143.45 20.34) rotate(76.72)" xlink:href="#linear-gradient"/><linearGradient id="linear-gradient-14" x1="57.32" y1="16.89" x2="60.43" y2="16.89" xlink:href="#linear-gradient"/><linearGradient id="linear-gradient-15" x1="245.11" y1="93.8" x2="245.11" y2="78.54" gradientUnits="userSpaceOnUse"><stop offset="0" stop-color="#162b42"/><stop offset="0.97" stop-color="#101925"/></linearGradient><linearGradient id="linear-gradient-41" x1="177.36" y1="61.41" x2="177.36" y2="29.65" xlink:href="#linear-gradient-15"/></defs><title>logo-full</title><path class="cls-1" d="M83.72,72.51,103.5,83.93l-43.32,25-.24-.14L17.35,84.21V34.75l.25-.14L60.18,10,103.5,35,84,46.31v.56l-.73-.41L60.18,33.15,37.37,46.32V72.66L60.18,85.82,83,72.66m-64.67,11,41.86,24.17,41.38-23.89L83.48,73.49,60.18,86.94,36.41,73.21V45.76L60.18,32,83.47,45.48,101.56,35,60.18,11.14,18.32,35.31Z"/><polyline class="cls-2" points="31.51 31.55 48.49 21.8 51.63 23.7 55.75 26.18 55.75 26.18 59.58 28.49 59.69 28.55 82.63 42.38 95.24 34.52 66.69 16.89 58.08 21.98 60.43 23.41 66.66 19.72 90.65 34.53 82.61 39.54 64.74 28.77 64.72 28.8 53.22 21.83 48.52 19 29.1 30.15 29.07 36.48 31.49 35.04"/><polygon class="cls-3" points="52.66 90.83 55 89.34 31.26 76.58 31.44 43.51 29.02 44.52 28.83 78.02 52.66 90.83"/><polygon class="cls-4" points="82.34 75.89 60.41 89.39 52.67 94.17 52.66 94.16 49.29 96.23 21.72 80.63 21.72 46.32 29.03 41.99 31.46 40.55 53.39 27.57 51.05 26.15 31.48 37.73 29.05 39.17 19.3 44.94 19.3 82.03 49.34 99.04 52.36 97.18 66.86 88.26 82.36 78.72 92.03 84.48 69.78 97.29 62.96 93.62 60.62 95.11 69.83 100.06 96.82 84.52 82.34 75.89"/><polygon class="cls-5" points="90.65 34.53 95.24 34.52 82.63 42.38 82.61 39.54 90.65 34.53"/><polygon class="cls-6" points="82.61 39.54 82.63 42.38 83.27 41.98 82.61 39.54"/><polygon class="cls-7" points="95.24 34.52 90.65 34.53 94.4 35.04 95.24 34.52"/><polygon class="cls-8" points="82.36 78.72 82.34 75.89 96.82 84.52 92.03 84.48 82.36 78.72"/><polyline class="cls-9" points="82.37 78.72 82.94 76.24 82.34 75.89"/><polyline class="cls-10" points="92.03 84.48 96.82 84.52 95.86 83.95"/><rect class="cls-11" x="67.92" y="87.6" width="16.61" height="1.48" transform="translate(-35.18 53.64) rotate(-31.91)"/><rect class="cls-12" x="74.42" y="20.17" width="1.48" height="19.06" transform="translate(10.46 78.12) rotate(-58.37)"/><circle class="cls-13" cx="58.87" cy="100.8" r="1.55" transform="translate(-52.75 134.94) rotate(-76.72)"/><circle class="cls-14" cx="58.87" cy="16.89" r="1.55"/><path class="cls-15" d="M126.88,90.71,125.15,89v-8.7l1.73-1.74h5.5l1.69,1.69-1,1-1.32-1.32h-4.23l-.91.91v7.68l.91.9h4.36L133.26,88l1,1-1.71,1.7Z"/><path class="cls-15" d="M137,90.71,135.29,89V87L137,85.28h4.4V84.21l-.9-.91h-4.09V82.08h4.72l1.72,1.73v6.9H141.4V89.37l-1.34,1.34Zm.65-1.15h2l1.7-1.69V86.42l-3.75,0-.91.89v1.32Z"/><path class="cls-15" d="M145.47,93.8V82.08h1.46v1.37l1.32-1.37h3.19l1.71,1.73V89l-1.71,1.73h-3.19l-1.32-1.35V93.8Zm3.16-4.24h2.18l.89-.91V84.14l-.89-.91h-2.18L146.93,85v2.87Z"/><path class="cls-15" d="M157.12,90.71,155.38,89V83.81l1.74-1.73H161l1.74,1.73v3.12h-5.87V88.6l.91.91h4.81v1.2Zm-.29-4.93h4.41V84.14l-.91-.91h-2.59l-.91.91Z"/><path class="cls-15" d="M170.37,90.71,168.64,89v-8.7l1.73-1.74h5.5l1.69,1.69-1,1-1.32-1.32h-4.23l-.91.91v7.68l.91.9h4.36L176.75,88l.95,1L176,90.71Z"/><path class="cls-15" d="M181.09,90.71,179.36,89V83.81l1.73-1.73h4.09l1.74,1.73V89l-1.74,1.73Zm.63-1.15h2.84l.9-.91V84.14l-.89-.91h-2.84l-.91.91v4.51Z"/><path class="cls-15" d="M189.43,90.71V82.08h1.45v1.55l1.5-1.55h3.19l1.72,1.73v6.9h-1.46V84.17l-.87-.94h-2.2l-1.88,1.92v5.56Z"/><path class="cls-15" d="M201.53,90.71,200,89.21v-6h-.91V82.08H200l.37-2.22h1.05v2.22h1.84v1.15h-1.84V88.7l.78.81h1.44v1.2Z"/><path class="cls-15" d="M205.44,90.71V82.08h1.46v1.55l1.5-1.55h2.21v1.45h-2.15l-1.56,1.62v5.56Z"/><path class="cls-15" d="M213.5,90.71,211.77,89V83.81l1.73-1.73h4.1l1.73,1.73V89l-1.73,1.73Zm.63-1.15H217l.91-.91,0-4.51-.89-.91h-2.84l-.91.91v4.51Z"/><path class="cls-15" d="M221.84,90.71V78.54h1.45V90.71Z"/><path class="cls-15" d="M229.73,90.71V78.54h6.42l1.72,1.74v4.17l-1.72,1.74h-4.92v4.52Zm1.5-5.86h4.25l.89-.91V80.79l-.89-.93-4.25,0Z"/><path class="cls-15" d="M239.75,90.71,238,89V87l1.71-1.73h4.39V84.21l-.89-.91h-4.09V82.08h4.72l1.72,1.73v6.9h-1.46V89.37l-1.33,1.34Zm.65-1.15h2l1.7-1.69V86.42l-3.74,0-.91.89v1.32Z"/><path class="cls-15" d="M248.22,90.71V82.08h1.46v1.55l1.5-1.55h3.19l1.71,1.73v6.9h-1.45V84.17l-.88-.94h-2.19l-1.88,1.92v5.56Z"/><path class="cls-15" d="M260.24,90.71,258.51,89V83.81l1.73-1.73h3.85l1.73,1.73v3.12H260V88.6l.91.91h4.81v1.2ZM260,85.78h4.41V84.14l-.91-.91h-2.59l-.91.91Z"/><path class="cls-15" d="M268.33,90.71V78.54h1.46V90.71Z"/><path class="cls-15" d="M278.62,90.71V79.93H275V78.54h8.74v1.39h-3.62V90.71Z"/><path class="cls-15" d="M285.21,90.71,283.47,89V83.81l1.74-1.73h3.85l1.73,1.73v3.12h-5.86V88.6l.91.91h4.8v1.2Zm-.28-4.93h4.41V84.14l-.91-.91h-2.59l-.91.91Z"/><path class="cls-15" d="M294.83,90.71,293.1,89V83.81l1.73-1.73h3.95l1.52,1.5V85h-1.45v-.89l-.83-.83h-2.56l-.91.91v4.44l.91.93h4.76v1.2Z"/><path class="cls-15" d="M302.53,90.71V78.54H304v4.91l1.32-1.37h3.19l1.72,1.73v6.9h-1.46V84.17l-.87-.94h-2.2L304,85v5.74Z"/><path class="cls-15" d="M312.83,90.71V82.08h1.45v1.55l1.51-1.55H319l1.72,1.73v6.9h-1.45V84.17l-.88-.94h-2.19l-1.89,1.92v5.56Z"/><path class="cls-15" d="M324.85,90.71,323.12,89V83.81l1.73-1.73H329l1.73,1.73V89L329,90.71Zm.63-1.15h2.84l.91-.91,0-4.51-.89-.91h-2.84l-.91.91v4.51Z"/><path class="cls-15" d="M333.19,90.71V78.54h1.45V90.71Z"/><path class="cls-15" d="M338.87,90.71,337.14,89V83.81l1.73-1.73H343l1.74,1.73V89L343,90.71Zm.63-1.15h2.84l.9-.91V84.14l-.89-.91H339.5l-.91.91v4.51Z"/><path class="cls-15" d="M347.6,93.8V92.59h4.66l.91-.89V89.36l-1.34,1.35h-3.17L346.93,89V83.81l1.73-1.73h3.17l1.34,1.37V82.08h1.45v10l-1.73,1.73Zm3.87-4.24,1.7-1.72V85l-1.7-1.74h-2.18l-.91.91v4.51l.91.91Z"/><path class="cls-15" d="M358.78,93.8l1.55-3.68h-.61l-3.55-8h1.6l2.78,6.6h.38l2.56-6.6h1.58L360.25,93.8Z"/><path class="cls-16" d="M129.49,61.41l-4.78-4.79V34.44l4.78-4.79h15L148.84,34l-3.4,3.45-3.15-3.06H132l-1.89,1.9,0,18.48,1.85,1.9h10.69l3.14-3.1,3.41,3.49-4.35,4.35Z"/><path class="cls-16" d="M157.89,61.41l-4.79-4.79V34.44l4.79-4.79h15L177.23,34l-3.4,3.45-3.15-3.06H160.39l-1.9,1.9,0,18.48,1.86,1.9h10.68l3.15-3.1,3.4,3.49-4.35,4.35Z"/><path class="cls-16" d="M182.36,61.41V29.65h17.88L205,34.44V45.68l-4.78,4.78H187.75V61.41Zm5.39-15.69h9.95l1.94-1.89,0-7.54-1.89-1.9h-9.95Z"/><path class="cls-16" d="M215.8,61.41V34.56H207V29.65h23v4.91h-8.83V61.41Z"/></svg>